<svg width="305" height="327" viewBox="0 0 305 327" fill="none" xmlns="http://www.w3.org/2000/svg">
<path d="M74.9455 188.289C74.9455 188.289 31.0624 104.146 154.018 93.0006C276.974 81.855 247.938 173.184 202.571 186.975C157.204 200.766 170.652 225.849 129.752 225.546C88.8512 225.242 74.9455 188.289 74.9455 188.289Z" fill="#D7D5D9"/>
<path opacity="0.27" d="M225.815 104.65C243.183 129.901 221.235 168.695 192.927 177.301C147.559 191.091 161.008 216.175 120.108 215.871C104.348 215.755 92.599 210.194 84.1065 203.405C92.368 213.655 106.821 225.375 129.782 225.546C170.682 225.849 157.234 200.766 202.601 186.975C234.866 177.167 258.87 128.141 225.815 104.65Z" fill="#ACAAB1"/>
<path d="M197.233 119.808C194.821 119.599 185.372 118.206 176.895 116.864C175.107 116.581 173.421 117.804 173.137 119.595C172.854 121.386 174.077 123.069 175.868 123.352C180.844 124.139 184.703 124.735 187.715 125.18C180.432 130.439 175.742 136.489 175.441 136.883C174.34 138.323 174.614 140.381 176.053 141.484C176.648 141.94 177.351 142.16 178.048 142.16C179.034 142.16 180.009 141.718 180.657 140.875C180.746 140.76 188.563 130.704 199.092 126.146C199.123 126.133 199.155 126.119 199.187 126.105C200.685 125.462 202.237 124.931 203.829 124.556C218.64 121.071 231.073 110.248 231.595 109.788C231.626 109.761 231.653 109.732 231.682 109.704C230.204 108.169 228.547 106.704 226.702 105.322C224.231 107.356 213.87 115.445 202.324 118.161C200.571 118.576 198.872 119.14 197.233 119.808Z" fill="#ACAAB1"/>
<path d="M119.013 207.401C131.131 205.109 133.237 193.465 133.32 192.971C133.344 192.828 133.351 192.847 133.354 192.745C133.497 192.09 135.442 185.028 152.366 183.017C154.167 182.803 155.454 181.169 155.24 179.368C155.027 177.567 153.393 176.279 151.591 176.494C142.102 177.621 135.108 180.386 130.803 184.71C127.607 187.921 126.962 190.938 126.833 191.924C126.664 192.75 125.052 199.573 117.792 200.946C107.077 202.973 100.135 214.879 99.0507 216.852C100.852 217.986 102.77 219.048 104.807 220.016C106.521 216.813 112.182 208.694 119.013 207.401Z" fill="#ACAAB1"/>
<path d="M140.6 211.359C142.34 210.849 143.338 209.024 142.827 207.284C142.316 205.543 140.491 204.545 138.751 205.056C125.939 208.813 117.935 222.777 117.601 223.369C117.446 223.644 117.337 223.931 117.268 224.224C119.462 224.689 121.755 225.042 124.152 225.267C126.28 222.02 132.362 213.775 140.6 211.359Z" fill="#ACAAB1"/>
<path d="M71.7788 138.637C71.8141 138.631 75.7525 138.452 81.7095 144.409C82.858 145.558 83.8553 146.616 84.7351 147.55C89.4613 152.568 92.2227 155.096 100.277 155.096C101.371 155.096 102.563 155.049 103.871 154.956C105.68 154.827 107.042 153.255 106.913 151.446C106.784 149.637 105.21 148.274 103.403 148.403C95.1189 148.995 94.1548 147.97 89.5172 143.046C88.6059 142.079 87.5733 140.982 86.3543 139.763C80.3074 133.716 75.2923 132.368 72.6732 132.13C71.6297 134.217 70.7647 136.326 70.0576 138.438C70.5862 138.65 71.1754 138.73 71.7788 138.637Z" fill="#ACAAB1"/>
<path d="M91.993 115.293C92.0816 115.228 100.881 108.859 106.773 113.51C107.272 113.903 107.465 114.202 107.478 114.338C107.575 115.3 105.541 117.706 104.325 119.144C101.933 121.974 99.4588 124.9 99.7746 128.44C99.9426 130.319 100.875 131.972 102.545 133.353C110.183 139.665 115.963 134.293 121.55 129.097C123.275 127.493 125.059 125.835 127.128 124.178C128.785 122.851 130.227 122.256 130.89 122.627C132.501 123.527 134.244 129.039 133.078 138.475C132.855 140.275 134.134 141.915 135.934 142.138C136.071 142.155 136.207 142.163 136.342 142.163C137.976 142.163 139.392 140.945 139.597 139.281C139.923 136.649 140.059 134.178 140.018 131.898C140.58 130.581 142.645 126.562 146.99 126.382C148.802 126.308 150.211 124.777 150.136 122.965C150.061 121.153 148.533 119.737 146.719 119.819C143.249 119.962 140.603 121.298 138.626 122.967C137.623 120.102 136.097 118.012 134.094 116.892C131.843 115.635 128.095 114.989 123.023 119.05C120.764 120.858 118.805 122.679 117.078 124.286C110.73 130.187 109.57 130.636 106.73 128.289C106.376 127.997 106.319 127.85 106.318 127.855C106.249 127.042 108.26 124.664 109.341 123.385C111.708 120.586 114.39 117.413 114.015 113.68C113.81 111.645 112.743 109.853 110.844 108.353C108.16 106.235 105.277 105.379 102.494 105.253C96.5324 108.028 91.516 111.129 87.3138 114.46C87.3432 114.504 87.3693 114.55 87.4016 114.593C88.4766 116.054 90.5321 116.367 91.993 115.293Z" fill="#ACAAB1"/>
<path d="M240.736 135.673C239.986 135.84 229.477 138.223 218.563 142.457C218.528 140.008 217.871 137.871 216.945 136.107C227.039 134.384 235.128 130.057 240.023 123.775C239.326 121.503 238.397 119.286 237.211 117.149C236.355 117.579 235.861 118.311 235.65 118.628C231.798 124.409 224.407 128.378 214.839 129.803C213.231 130.042 211.708 130.342 210.253 130.68C210.2 130.69 210.148 130.704 210.095 130.717C193.827 134.556 187.085 143.957 186.782 144.391C186.76 144.422 186.74 144.452 186.719 144.483C183.706 149.127 173.864 160.79 164.638 159.027C162.857 158.688 161.136 159.855 160.796 161.637C160.455 163.418 161.624 165.139 163.405 165.479C164.485 165.686 165.549 165.782 166.601 165.782C180.251 165.78 191.238 149.567 192.182 148.133C192.645 147.504 197.801 140.823 210.005 137.509C211.178 138.772 212.817 141.405 211.537 145.455C206.004 148.061 200.906 151.146 197.555 154.659C196.304 155.972 196.353 158.051 197.666 159.303C198.302 159.91 199.117 160.211 199.932 160.211C200.799 160.211 201.664 159.87 202.31 159.193C210.994 150.085 235.261 143.758 240.959 142.371C241.352 140.114 241.577 137.851 241.621 135.602C241.329 135.586 241.033 135.607 240.736 135.673Z" fill="#ACAAB1"/>
<path d="M128.093 168.072C126.403 167.412 124.498 168.249 123.84 169.939C121.799 175.175 116.192 178.251 116.107 178.297C114.511 179.148 113.904 181.132 114.751 182.731C115.34 183.844 116.478 184.479 117.656 184.479C118.174 184.479 118.7 184.356 119.19 184.097C119.508 183.929 127.012 179.887 129.96 172.325C130.619 170.635 129.783 168.731 128.093 168.072Z" fill="#ACAAB1"/>
<path d="M239.578 47.1674C239.739 47.1367 239.903 47.1115 240.067 47.0893C239.903 47.1111 239.74 47.1363 239.578 47.1674Z" fill="#D7D5D9"/>
<path d="M233.153 80.7183C233.029 80.6599 232.912 80.5956 232.793 80.5331C232.912 80.5956 233.028 80.6595 233.153 80.7183Z" fill="#D7D5D9"/>
<path d="M239.086 47.2774C239.245 47.2366 239.404 47.2001 239.565 47.169C239.405 47.2005 239.245 47.2366 239.086 47.2774Z" fill="#D7D5D9"/>
<path d="M240.136 47.08C240.297 47.0599 240.459 47.0435 240.622 47.0313C240.459 47.0439 240.297 47.0599 240.136 47.08Z" fill="#D7D5D9"/>
<path d="M233.792 80.9917C233.666 80.9429 233.548 80.8888 233.427 80.8367C233.548 80.8884 233.666 80.9429 233.792 80.9917Z" fill="#D7D5D9"/>
<path d="M232.557 80.4101C232.436 80.3412 232.322 80.2664 232.206 80.193C232.322 80.2664 232.436 80.3408 232.557 80.4101Z" fill="#D7D5D9"/>
<path d="M231.497 79.6874C231.386 79.5971 231.282 79.5009 231.178 79.4048C231.282 79.5009 231.386 79.5967 231.497 79.6874Z" fill="#D7D5D9"/>
<path d="M239.05 81.6765C238.909 81.703 238.767 81.7253 238.628 81.7437C238.767 81.7248 238.908 81.7026 239.05 81.6765Z" fill="#D7D5D9"/>
<path d="M231.03 79.2716C230.926 79.17 230.828 79.0629 230.731 78.9554C230.828 79.0629 230.926 79.17 231.03 79.2716Z" fill="#D7D5D9"/>
<path d="M238.575 47.4277C238.728 47.3769 238.882 47.3299 239.037 47.2891C238.882 47.3307 238.728 47.3769 238.575 47.4277Z" fill="#D7D5D9"/>
<path d="M238.046 47.6267C238.198 47.5625 238.351 47.505 238.505 47.4521C238.351 47.505 238.198 47.5621 238.046 47.6267Z" fill="#D7D5D9"/>
<path d="M232.006 80.0665C231.889 79.9868 231.779 79.9015 231.669 79.8171C231.779 79.9015 231.889 79.9868 232.006 80.0665Z" fill="#D7D5D9"/>
<path d="M237.09 48.121C237.236 48.0307 237.384 47.9463 237.532 47.8686C237.383 47.9463 237.236 48.0307 237.09 48.121Z" fill="#D7D5D9"/>
<path d="M237.877 81.8038C237.734 81.8076 237.592 81.8067 237.45 81.8013C237.591 81.8063 237.734 81.8071 237.877 81.8038Z" fill="#D7D5D9"/>
<path d="M244.1 47.1951C244.48 47.2446 244.865 47.3 245.256 47.3597C244.865 47.3005 244.48 47.2446 244.1 47.1951Z" fill="#D7D5D9"/>
<path d="M237.308 81.7945C237.137 81.784 236.967 81.7698 236.798 81.745C236.967 81.7698 237.137 81.7845 237.308 81.7945Z" fill="#D7D5D9"/>
<path d="M238.497 81.7609C238.323 81.7807 238.149 81.7949 237.977 81.8021C238.149 81.7945 238.323 81.7807 238.497 81.7609Z" fill="#D7D5D9"/>
<path d="M245.273 47.3626C245.475 47.3933 245.678 47.4252 245.882 47.4571C245.678 47.4252 245.474 47.3933 245.273 47.3626Z" fill="#D7D5D9"/>
<path d="M234.475 81.2306C234.351 81.1911 234.233 81.1466 234.112 81.1046C234.233 81.1466 234.35 81.1911 234.475 81.2306Z" fill="#D7D5D9"/>
<path d="M235.978 81.6073C235.875 81.5875 235.78 81.5632 235.679 81.5417C235.779 81.5623 235.876 81.5871 235.978 81.6073Z" fill="#D7D5D9"/>
<path d="M242.353 47.0254C242.708 47.0456 243.068 47.0767 243.433 47.1161C243.068 47.0762 242.708 47.0456 242.353 47.0254Z" fill="#D7D5D9"/>
<path d="M241.774 47.0023C241.943 47.0057 242.113 47.012 242.285 47.0212C242.114 47.012 241.943 47.0061 241.774 47.0023Z" fill="#D7D5D9"/>
<path d="M237.563 47.8531C237.713 47.7762 237.863 47.7057 238.014 47.6406C237.863 47.7053 237.713 47.7762 237.563 47.8531Z" fill="#D7D5D9"/>
<path d="M228.6 73.032C228.586 72.7998 228.578 72.5621 228.573 72.3198C228.578 72.5617 228.586 72.7998 228.6 73.032Z" fill="#D7D5D9"/>
<path d="M228.821 68.4049C228.862 68.0921 228.908 67.7729 228.959 67.4483C228.908 67.7729 228.862 68.0925 228.821 68.4049Z" fill="#D7D5D9"/>
<path d="M230.606 78.8198C230.508 78.7069 230.418 78.5876 230.328 78.4679C230.418 78.5876 230.508 78.7069 230.606 78.8198Z" fill="#D7D5D9"/>
<path d="M228.667 73.8332C228.643 73.6161 228.625 73.3927 228.609 73.166C228.625 73.3923 228.643 73.6157 228.667 73.8332Z" fill="#D7D5D9"/>
<path d="M228.704 69.414C228.734 69.1188 228.769 68.8173 228.808 68.5099C228.769 68.8169 228.734 69.1188 228.704 69.414Z" fill="#D7D5D9"/>
<path d="M228.623 70.3819C228.642 70.1031 228.666 69.8184 228.694 69.5282C228.666 69.8175 228.642 70.1031 228.623 70.3819Z" fill="#D7D5D9"/>
<path d="M228.578 71.3066C228.586 71.0437 228.599 70.7745 228.616 70.5007C228.599 70.7745 228.586 71.0441 228.578 71.3066Z" fill="#D7D5D9"/>
<path d="M230.249 61.4304C230.361 61.0046 230.477 60.5721 230.599 60.1316C230.477 60.5721 230.361 61.0054 230.249 61.4304Z" fill="#D7D5D9"/>
<path d="M235.681 49.233C235.821 49.0956 235.962 48.9646 236.104 48.842C235.962 48.9642 235.821 49.0952 235.681 49.233Z" fill="#D7D5D9"/>
<path d="M236.116 48.8319C236.259 48.7097 236.402 48.5959 236.548 48.488C236.402 48.5955 236.258 48.7097 236.116 48.8319Z" fill="#D7D5D9"/>
<path d="M230.223 78.3306C230.133 78.2059 230.051 78.0749 229.969 77.9434C230.051 78.0753 230.134 78.2059 230.223 78.3306Z" fill="#D7D5D9"/>
<path d="M229.579 77.2392C229.507 77.0897 229.441 76.9348 229.377 76.7777C229.442 76.9348 229.507 77.0906 229.579 77.2392Z" fill="#D7D5D9"/>
<path d="M229.881 77.804C229.8 77.6675 229.726 77.5248 229.653 77.3807C229.726 77.5248 229.8 77.6675 229.881 77.804Z" fill="#D7D5D9"/>
<path d="M233.914 51.5119C234.04 51.3057 234.167 51.1079 234.295 50.9189C234.167 51.1075 234.04 51.3057 233.914 51.5119Z" fill="#D7D5D9"/>
<path d="M235.215 49.7255C235.348 49.5739 235.484 49.4303 235.62 49.2939C235.483 49.4299 235.348 49.5735 235.215 49.7255Z" fill="#D7D5D9"/>
<path d="M229.638 63.9327C229.725 63.5473 229.817 63.1546 229.914 62.7553C229.817 63.155 229.724 63.5473 229.638 63.9327Z" fill="#D7D5D9"/>
<path d="M247.181 76.8747C246.992 77.049 246.803 77.2199 246.612 77.3875C246.802 77.2195 246.992 77.0494 247.181 76.8747Z" fill="#D7D5D9"/>
<path d="M249.587 74.4509C249.415 74.6382 249.242 74.823 249.068 75.0061C249.242 74.8234 249.415 74.6382 249.587 74.4509Z" fill="#D7D5D9"/>
<path d="M250.188 73.7841C250.001 73.9958 249.813 74.2053 249.623 74.4127C249.812 74.2049 250.001 73.9958 250.188 73.7841Z" fill="#D7D5D9"/>
<path d="M246.505 77.4819C246.346 77.6209 246.187 77.757 246.028 77.8905C246.187 77.757 246.346 77.6205 246.505 77.4819Z" fill="#D7D5D9"/>
<path d="M245.913 77.9867C245.725 78.1433 245.536 78.297 245.346 78.4465C245.536 78.2974 245.724 78.1437 245.913 77.9867Z" fill="#D7D5D9"/>
<path d="M233.858 51.6051C233.728 51.8205 233.6 52.0435 233.473 52.2782C233.6 52.0431 233.729 51.8205 233.858 51.6051Z" fill="#D7D5D9"/>
<path d="M254.53 68.1924C254.045 68.9 253.537 69.6088 253.011 70.3101C253.537 69.6088 254.045 68.9004 254.53 68.1924Z" fill="#D7D5D9"/>
<path d="M258.579 61.2851C258.692 61.0466 258.8 60.8136 258.903 60.5834C258.799 60.8136 258.692 61.047 258.579 61.2851Z" fill="#D7D5D9"/>
<path d="M252.994 70.3344C252.649 70.793 252.297 71.2478 251.938 71.6983C252.297 71.2482 252.649 70.7926 252.994 70.3344Z" fill="#D7D5D9"/>
<path d="M244.074 79.388C243.887 79.5173 243.699 79.6412 243.511 79.7617C243.699 79.6403 243.887 79.5169 244.074 79.388Z" fill="#D7D5D9"/>
<path d="M247.857 76.2335C248.234 75.8673 248.609 75.489 248.979 75.101C248.609 75.489 248.235 75.8669 247.857 76.2335Z" fill="#D7D5D9"/>
<path d="M251.888 71.7609C251.533 72.2048 251.171 72.6436 250.803 73.0753C251.171 72.6432 251.533 72.2048 251.888 71.7609Z" fill="#D7D5D9"/>
<path d="M230.992 58.7492C230.857 59.2111 230.728 59.6659 230.605 60.1123C230.728 59.6655 230.857 59.2115 230.992 58.7492Z" fill="#D7D5D9"/>
<path d="M255.235 48.9928C255.793 49.2393 256.291 49.5282 256.735 49.8494C256.291 49.5286 255.793 49.2401 255.235 48.9928Z" fill="#D7D5D9"/>
<path d="M249.697 47.9887C249.735 47.9925 249.773 47.9967 249.812 48C249.774 47.9967 249.735 47.9925 249.697 47.9887Z" fill="#D7D5D9"/>
<path d="M259.494 59.1574C259.42 59.3535 259.34 59.5555 259.256 59.7612C259.34 59.5555 259.42 59.3535 259.494 59.1574Z" fill="#D7D5D9"/>
<path d="M242.794 80.2005C242.609 80.308 242.425 80.4096 242.24 80.5075C242.425 80.41 242.609 80.308 242.794 80.2005Z" fill="#D7D5D9"/>
<path d="M250.4 48.0509C250.436 48.0534 250.471 48.0563 250.507 48.0584C250.472 48.0559 250.435 48.0534 250.4 48.0509Z" fill="#D7D5D9"/>
<path d="M247.707 47.7393C247.75 47.746 247.793 47.7519 247.837 47.7582C247.794 47.7519 247.75 47.7456 247.707 47.7393Z" fill="#D7D5D9"/>
<path d="M248.398 47.8363C248.431 47.8405 248.464 47.8451 248.498 47.8493C248.464 47.8451 248.431 47.8409 248.398 47.8363Z" fill="#D7D5D9"/>
<path d="M241.523 80.8627C241.339 80.9476 241.156 81.0282 240.973 81.1025C241.156 81.0282 241.339 80.9471 241.523 80.8627Z" fill="#D7D5D9"/>
<path d="M249.062 47.9199C249.077 47.9215 249.092 47.9236 249.107 47.9257C249.092 47.9241 249.077 47.9215 249.062 47.9199Z" fill="#D7D5D9"/>
<path d="M239.722 81.5254C239.544 81.5732 239.366 81.6144 239.189 81.6501C239.367 81.6144 239.544 81.5737 239.722 81.5254Z" fill="#D7D5D9"/>
<path d="M259.735 58.4817C259.671 58.6732 259.6 58.8718 259.524 59.0746C259.6 58.8722 259.671 58.6732 259.735 58.4817Z" fill="#D7D5D9"/>
<path d="M240.272 81.3591C240.115 81.4111 239.957 81.4598 239.8 81.5031C239.957 81.4594 240.115 81.4111 240.272 81.3591Z" fill="#D7D5D9"/>
<path d="M243.369 79.8511C243.215 79.9477 243.062 80.0422 242.908 80.1329C243.061 80.0422 243.215 79.9481 243.369 79.8511Z" fill="#D7D5D9"/>
<path d="M247.039 47.6385C247.082 47.6452 247.124 47.6515 247.166 47.6583C247.124 47.6515 247.082 47.6448 247.039 47.6385Z" fill="#D7D5D9"/>
<path d="M258.232 51.2826C258.539 51.6719 258.8 52.0809 259.019 52.4987C258.8 52.0809 258.539 51.6723 258.232 51.2826Z" fill="#D7D5D9"/>
<path d="M255.485 66.758C256.725 64.8356 257.782 62.9577 258.579 61.2851C257.782 62.9577 256.725 64.8351 255.485 66.758Z" fill="#ACAAB1"/>
<path d="M231.19 58.0668C231.121 58.2986 231.058 58.522 230.992 58.7496C231.058 58.5216 231.121 58.2978 231.19 58.0668Z" fill="#ACAAB1"/>
<path d="M231.514 57.0267C231.573 56.8453 231.632 56.6664 231.691 56.4909C231.631 56.666 231.572 56.8449 231.514 57.0267Z" fill="#ACAAB1"/>
<path d="M232.035 55.5158C232.12 55.2878 232.205 55.0644 232.29 54.8477C232.205 55.0644 232.12 55.2882 232.035 55.5158Z" fill="#ACAAB1"/>
<path d="M233.474 52.2778C233.38 52.4504 233.288 52.6297 233.196 52.8128C233.287 52.6297 233.38 52.4508 233.474 52.2778Z" fill="#ACAAB1"/>
<path d="M232.294 54.8372C232.383 54.6126 232.473 54.3955 232.564 54.183C232.473 54.395 232.383 54.6126 232.294 54.8372Z" fill="#ACAAB1"/>
<path d="M232.918 53.3881C232.986 53.2419 233.054 53.0987 233.124 52.9585C233.055 53.0983 232.986 53.2415 232.918 53.3881Z" fill="#ACAAB1"/>
<path d="M232.63 54.0284C232.699 53.871 232.767 53.7156 232.836 53.5648C232.767 53.716 232.699 53.871 232.63 54.0284Z" fill="#ACAAB1"/>
<path d="M174.285 193.501C152.063 171.441 138.583 171.559 113 190.342" stroke="black" stroke-width="3" stroke-linecap="round"/>
<ellipse cx="173.5" cy="134.967" rx="7.5" ry="7" fill="black"/>
<ellipse cx="129.5" cy="134.967" rx="7.5" ry="7" fill="black"/>
<path d="M166 204C174 210.5 193.344 216.827 198.5 217.5C210 219 222.5 212.5 233 186L246.5 179" stroke="black" stroke-width="3" stroke-linecap="round"/>
<path d="M94 198.379C87.5404 203.417 71.9213 208.322 67.7578 208.843C58.4721 210.006 48.3789 204.968 39.9006 184.426L29 179" stroke="black" stroke-width="3" stroke-linecap="round"/>
<path d="M142.109 225C142.109 225 143.609 245 142.109 248C140.609 251 155.109 251 155.109 251" stroke="black" stroke-width="3" stroke-linecap="round"/>
<path d="M119.109 225C119.109 225 120.609 245 119.109 248C117.609 251 132.109 251 132.109 251" stroke="black" stroke-width="3" stroke-linecap="round"/>
</svg>
