<svg width="198" height="157" viewBox="0 0 198 157" fill="none" xmlns="http://www.w3.org/2000/svg">
<path d="M26.9455 96.2291C26.9455 96.2291 -16.9376 12.086 106.018 0.940426C228.974 -10.2051 199.938 81.1241 154.571 94.9152C109.204 108.706 122.652 133.789 81.7516 133.486C40.8512 133.182 26.9455 96.2291 26.9455 96.2291Z" fill="#D7D5D9"/>
<path opacity="0.27" d="M177.815 12.5899C195.183 37.8406 173.235 76.6351 144.927 85.2406C99.5592 99.0312 113.008 124.114 72.1077 123.811C56.3476 123.695 44.599 118.134 36.1065 111.345C44.368 121.594 58.8205 133.315 81.7818 133.486C122.682 133.789 109.234 108.706 154.601 94.9152C186.866 85.107 210.87 36.0808 177.815 12.5899Z" fill="#ACAAB1"/>
<path d="M96 129.407C96 129.407 97.5 149.407 96 152.407C94.5 155.407 109 155.407 109 155.407" stroke="black" stroke-width="3" stroke-linecap="round"/>
<path d="M65.1088 128.907C65.1088 128.907 66.6088 148.907 65.1088 151.907C63.6088 154.907 78.1088 154.907 78.1088 154.907" stroke="black" stroke-width="3" stroke-linecap="round"/>
<path d="M96 129.407C96 129.407 97.5 149.407 96 152.407C94.5 155.407 109 155.407 109 155.407" stroke="black" stroke-width="3" stroke-linecap="round"/>
<path d="M65.1088 128.907C65.1088 128.907 66.6088 148.907 65.1088 151.907C63.6088 154.907 78.1088 154.907 78.1088 154.907" stroke="black" stroke-width="3" stroke-linecap="round"/>
<path d="M149.233 27.7479C146.821 27.5392 137.372 26.1454 128.895 24.8042C127.107 24.5212 125.421 25.7436 125.137 27.5345C124.854 29.3259 126.077 31.0085 127.868 31.292C132.844 32.0793 136.703 32.6744 139.715 33.1199C132.432 38.379 127.742 44.4292 127.441 44.8227C126.34 46.2626 126.614 48.3211 128.053 49.4234C128.648 49.8798 129.351 50.1003 130.048 50.1003C131.034 50.1003 132.009 49.6581 132.657 48.8153C132.746 48.6999 140.563 38.644 151.092 34.0862C151.123 34.0727 151.155 34.0584 151.187 34.0446C152.685 33.4021 154.237 32.8705 155.829 32.4959C170.64 29.011 183.073 18.1875 183.595 17.7281C183.626 17.7012 183.653 17.6714 183.682 17.6441C182.204 16.1085 180.547 14.6438 178.702 13.2618C176.231 15.2955 165.87 23.3849 154.324 26.1013C152.571 26.5154 150.872 27.0798 149.233 27.7479Z" fill="#ACAAB1"/>
<path d="M71.0133 115.341C83.1314 113.049 85.2369 101.405 85.3205 100.91C85.3444 100.768 85.3511 100.787 85.3541 100.685C85.4973 100.03 87.4415 92.9676 104.366 90.957C106.167 90.7429 107.454 89.1094 107.24 87.3079C107.027 85.5068 105.393 84.2194 103.591 84.4339C94.1023 85.561 87.1077 88.3258 82.8026 92.6501C79.6066 95.8609 78.9616 98.878 78.8331 99.864C78.6639 100.69 77.0518 107.512 69.7922 108.886C59.077 110.913 52.1349 122.819 51.0507 124.792C52.8517 125.926 54.7703 126.988 56.8074 127.956C58.5215 124.753 64.182 116.634 71.0133 115.341Z" fill="#ACAAB1"/>
<path d="M92.5998 119.299C94.3404 118.789 95.3377 116.964 94.8271 115.223C94.3165 113.483 92.4915 112.485 90.7513 112.996C77.9387 116.753 69.9354 130.716 69.6007 131.309C69.4457 131.584 69.337 131.871 69.2677 132.164C71.4618 132.629 73.755 132.982 76.1519 133.207C78.2805 129.96 84.3622 121.715 92.5998 119.299Z" fill="#ACAAB1"/>
<path d="M23.7788 46.5771C23.8141 46.5704 27.7525 46.3915 33.7095 52.3486C34.858 53.4979 35.8553 54.5561 36.7351 55.49C41.4613 60.508 44.2227 63.036 52.2772 63.036C53.3711 63.036 54.5633 62.9894 55.8705 62.8957C57.6799 62.7664 59.0422 61.1946 58.9128 59.3856C58.7835 57.5766 57.2101 56.2139 55.4027 56.3433C47.1189 56.9345 46.1548 55.9099 41.5172 50.9859C40.6059 50.0184 39.5733 48.922 38.3543 47.7034C32.3074 41.6561 27.2923 40.3077 24.6732 40.0696C23.6297 42.157 22.7647 44.2655 22.0576 46.3777C22.5862 46.5897 23.1754 46.6704 23.7788 46.5771Z" fill="#ACAAB1"/>
<path d="M43.993 23.2324C44.0816 23.1678 52.8807 16.7984 58.7734 21.4499C59.2723 21.8433 59.4651 22.1419 59.4785 22.2775C59.5751 23.2396 57.5406 25.6461 56.3249 27.0844C53.9326 29.9138 51.4588 32.8402 51.7746 36.3802C51.9426 38.2593 52.8748 39.9117 54.5448 41.2924C62.1832 47.6051 67.9626 42.2326 73.5505 37.0365C75.2751 35.4328 77.0589 33.775 79.1283 32.118C80.7853 30.791 82.2273 30.196 82.89 30.5672C84.5008 31.4671 86.2443 36.9786 85.0778 46.4151C84.8552 48.2153 86.1339 49.8551 87.9345 50.078C88.0714 50.0953 88.2074 50.1032 88.3418 50.1032C89.9757 50.1032 91.3917 48.8846 91.5975 47.2213C91.9229 44.5884 92.059 42.1176 92.0182 39.8378C92.5801 38.5205 94.6453 34.5019 98.9898 34.3221C100.802 34.2474 102.211 32.7172 102.136 30.9048C102.061 29.0929 100.533 27.6769 98.7185 27.7588C95.2491 27.902 92.6028 29.2377 90.6258 30.9065C89.623 28.0422 88.0974 25.9518 86.0936 24.8323C83.8428 23.5751 80.0954 22.9292 75.0232 26.9895C72.764 28.7977 70.8055 30.6184 69.0779 32.2255C62.7304 38.1271 61.5697 38.5764 58.7298 36.229C58.3758 35.9367 58.3191 35.7902 58.3178 35.7944C58.249 34.9823 60.2604 32.6038 61.3413 31.3252C63.7079 28.526 66.3904 25.353 66.0146 21.6195C65.8097 19.585 64.7426 17.7928 62.8442 16.2932C60.1604 14.1747 57.2773 13.3189 54.4936 13.1929C48.5324 15.9678 43.516 19.0689 39.3138 22.4001C39.3432 22.4442 39.3693 22.4896 39.4016 22.5324C40.4766 23.9937 42.5321 24.307 43.993 23.2324Z" fill="#ACAAB1"/>
<path d="M192.736 43.6129C191.986 43.78 181.477 46.1627 170.563 50.3972C170.528 47.9482 169.871 45.8112 168.945 44.0467C179.039 42.3237 187.128 37.9965 192.023 31.7153C191.326 29.4431 190.397 27.2255 189.211 25.0885C188.355 25.5185 187.861 26.2508 187.65 26.5679C183.798 32.3489 176.407 36.318 166.839 37.7428C165.231 37.9822 163.708 38.2816 162.253 38.62C162.2 38.6301 162.148 38.6435 162.095 38.6566C145.827 42.4963 139.085 51.8967 138.782 52.3313C138.76 52.3616 138.74 52.3922 138.719 52.4233C135.706 57.0672 125.864 68.7301 116.638 66.9673C114.857 66.628 113.136 67.7954 112.796 69.5767C112.455 71.358 113.624 73.0788 115.405 73.4194C116.485 73.6256 117.549 73.7217 118.601 73.7217C132.25 73.7196 143.238 57.5064 144.182 56.0728C144.645 55.4438 149.801 48.7632 162.005 45.4484C163.178 46.7119 164.817 49.3448 163.537 53.3946C158.004 56.001 152.906 59.0858 149.555 62.5993C148.304 63.9123 148.353 65.991 149.666 67.2432C150.302 67.8495 151.117 68.1506 151.932 68.1506C152.799 68.1506 153.664 67.8096 154.31 67.1327C162.994 58.025 187.261 51.6981 192.959 50.3111C193.352 48.0536 193.577 45.7906 193.621 43.5415C193.329 43.526 193.033 43.5466 192.736 43.6129Z" fill="#ACAAB1"/>
<path d="M80.0929 76.0116C78.4031 75.3523 76.4983 76.1888 75.8399 77.879C73.7986 83.115 68.1919 86.1913 68.1075 86.2367C66.5113 87.0879 65.9037 89.0716 66.7507 90.671C67.3403 91.7843 68.4782 92.4192 69.6561 92.4192C70.1743 92.4192 70.7 92.2961 71.1901 92.0371C71.508 91.8691 79.012 87.8269 81.9603 80.2645C82.6187 78.5748 81.7835 76.6709 80.0929 76.0116Z" fill="#ACAAB1"/>
<path d="M67.2877 83.8263C90.2206 105.146 103.69 104.587 128.643 84.9756" stroke="black" stroke-width="3" stroke-linecap="round"/>
<ellipse cx="125.5" cy="42.9073" rx="7.5" ry="7" fill="black"/>
<ellipse cx="81.5" cy="42.9073" rx="7.5" ry="7" fill="black"/>
<path d="M131 101.44C131 101.44 157 121.44 168 119.44C179 117.44 188.5 98.4399 188.5 98.4399M188.5 98.4399L183.5 90.9399M188.5 98.4399V90.9399M188.5 98.4399L193.5 90.9399M188.5 98.4399L196.5 93.9399" stroke="black" stroke-width="3" stroke-linecap="round"/>
<path d="M27.5 89.4399C27.5 89.4399 11.5 96.4399 9 101.44C6.5 106.44 6.5 124.94 6.5 124.94M6.5 124.94L11 129.44M6.5 124.94L8 129.94M6.5 124.94L4.5 129.94M6.5 124.94L2 129.44" stroke="black" stroke-width="3" stroke-linecap="round"/>
</svg>
