<svg width="202" height="202" viewBox="0 0 202 202" fill="none" xmlns="http://www.w3.org/2000/svg">
<path d="M22.9455 136.289C22.9455 136.289 -20.9376 52.1461 102.018 41.0005C224.974 29.855 195.938 121.184 150.571 134.975C105.204 148.766 118.652 173.849 77.7516 173.546C36.8512 173.242 22.9455 136.289 22.9455 136.289Z" fill="#CCCCCC"/>
<path opacity="0.27" d="M173.815 52.65C191.183 77.9008 169.235 116.695 140.927 125.301C95.5592 139.091 109.008 164.175 68.1077 163.871C52.3476 163.755 40.599 158.194 32.1065 151.405C40.368 161.655 54.8205 173.375 77.7818 173.546C118.682 173.849 105.234 148.766 150.601 134.975C182.866 125.167 206.87 76.1409 173.815 52.65Z" fill="#ACAAB1"/>
<path d="M145.233 67.8079C142.821 67.5992 133.372 66.2055 124.895 64.8643C123.107 64.5813 121.421 65.8037 121.137 67.5946C120.854 69.386 122.077 71.0686 123.868 71.3521C128.844 72.1394 132.703 72.7345 135.715 73.18C128.432 78.4391 123.742 84.4893 123.441 84.8828C122.34 86.3227 122.614 88.3812 124.053 89.4835C124.648 89.9399 125.351 90.1604 126.048 90.1604C127.034 90.1604 128.009 89.7182 128.657 88.8754C128.746 88.7599 136.563 78.7041 147.092 74.1462C147.123 74.1328 147.155 74.1185 147.187 74.1047C148.685 73.4622 150.237 72.9306 151.829 72.556C166.64 69.0711 179.073 58.2476 179.595 57.7882C179.626 57.7613 179.653 57.7315 179.682 57.7042C178.204 56.1686 176.547 54.7039 174.702 53.3219C172.231 55.3556 161.87 63.445 150.324 66.1614C148.571 66.5755 146.872 67.1399 145.233 67.8079Z" fill="#ACAAB1"/>
<path d="M67.0133 155.401C79.1314 153.109 81.2369 141.465 81.3205 140.971C81.3444 140.828 81.3511 140.847 81.3541 140.745C81.4973 140.09 83.4415 133.028 100.366 131.017C102.167 130.803 103.454 129.169 103.24 127.368C103.027 125.567 101.393 124.279 99.5913 124.494C90.1023 125.621 83.1077 128.386 78.8026 132.71C75.6066 135.921 74.9616 138.938 74.8331 139.924C74.6639 140.75 73.0518 147.573 65.7922 148.946C55.077 150.973 48.1349 162.879 47.0506 164.852C48.8517 165.986 50.7703 167.048 52.8074 168.016C54.5215 164.813 60.182 156.694 67.0133 155.401Z" fill="#ACAAB1"/>
<path d="M88.5998 159.359C90.3404 158.849 91.3377 157.024 90.8271 155.284C90.3165 153.543 88.4915 152.545 86.7513 153.056C73.9387 156.813 65.9354 170.777 65.6007 171.369C65.4457 171.644 65.337 171.931 65.2677 172.224C67.4618 172.689 69.755 173.043 72.1519 173.267C74.2805 170.02 80.3622 161.775 88.5998 159.359Z" fill="#ACAAB1"/>
<path d="M19.7788 86.6373C19.8141 86.6306 23.7525 86.4517 29.7095 92.4087C30.858 93.558 31.8553 94.6162 32.7351 95.5501C37.4613 100.568 40.2227 103.096 48.2772 103.096C49.3711 103.096 50.5633 103.05 51.8705 102.956C53.6799 102.827 55.0422 101.255 54.9128 99.4458C54.7835 97.6367 53.2101 96.2741 51.4027 96.4034C43.1189 96.9947 42.1548 95.9701 37.5172 91.0461C36.6059 90.0786 35.5733 88.9821 34.3543 87.7635C28.3074 81.7162 23.2923 80.3679 20.6732 80.1298C19.6297 82.2172 18.7647 84.3256 18.0576 86.4378C18.5862 86.6499 19.1754 86.7305 19.7788 86.6373Z" fill="#ACAAB1"/>
<path d="M39.993 63.2925C40.0816 63.2279 48.8807 56.8585 54.7734 61.51C55.2723 61.9034 55.465 62.202 55.4785 62.3376C55.575 63.2997 53.5405 65.7063 52.3249 67.1445C49.9326 69.9739 47.4588 72.9004 47.7746 76.4403C47.9426 78.3194 48.8748 79.9718 50.5448 81.3525C58.1832 87.6652 63.9626 82.2928 69.5505 77.0966C71.2751 75.493 73.0589 73.8351 75.1283 72.1781C76.7853 70.8511 78.2273 70.2561 78.8899 70.6273C80.5008 71.5272 82.2443 77.0387 81.0777 86.4752C80.8552 88.2754 82.1338 89.9152 83.9345 90.1382C84.0714 90.1554 84.2074 90.1633 84.3418 90.1633C85.9757 90.1633 87.3917 88.9447 87.5975 87.2814C87.9229 84.6485 88.0589 82.1777 88.0182 79.8979C88.5801 78.5806 90.6452 74.562 94.9898 74.3823C96.8021 74.3075 98.2106 72.7773 98.1358 70.9649C98.0611 69.153 96.533 67.737 94.7185 67.8189C91.2491 67.9621 88.6027 69.2978 86.6258 70.9666C85.623 68.1023 84.0974 66.012 82.0935 64.8924C79.8428 63.6352 76.0954 62.9894 71.0231 67.0496C68.764 68.8578 66.8054 70.6786 65.0779 72.2856C58.7303 78.1872 57.5697 78.6365 54.7297 76.2891C54.3758 75.9969 54.3191 75.8503 54.3178 75.8545C54.2489 75.0424 56.2604 72.6639 57.3412 71.3853C59.7079 68.5861 62.3904 65.4131 62.0146 61.6796C61.8096 59.6451 60.7426 57.8529 58.8441 56.3533C56.1604 54.2348 53.2772 53.379 50.4936 53.2531C44.5324 56.0279 39.516 59.129 35.3138 62.4603C35.3432 62.5044 35.3692 62.5497 35.4016 62.5925C36.4766 64.0539 38.5321 64.3671 39.993 63.2925Z" fill="#ACAAB1"/>
<path d="M188.736 83.6731C187.986 83.8402 177.477 86.2228 166.563 90.4573C166.528 88.0083 165.871 85.8713 164.945 84.1068C175.039 82.3839 183.128 78.0566 188.023 71.7754C187.326 69.5032 186.397 67.2856 185.211 65.1486C184.355 65.5786 183.861 66.311 183.65 66.628C179.798 72.4091 172.407 76.3782 162.839 77.803C161.231 78.0423 159.708 78.3417 158.253 78.6802C158.2 78.6903 158.148 78.7037 158.095 78.7167C141.827 82.5565 135.085 91.9569 134.782 92.3915C134.76 92.4217 134.74 92.4524 134.719 92.4834C131.706 97.1273 121.864 108.79 112.638 107.027C110.857 106.688 109.136 107.856 108.796 109.637C108.455 111.418 109.624 113.139 111.405 113.48C112.485 113.686 113.549 113.782 114.601 113.782C128.25 113.78 139.238 97.5666 140.182 96.133C140.645 95.5039 145.801 88.8234 158.005 85.5085C159.178 86.7721 160.817 89.405 159.537 93.4547C154.004 96.0612 148.906 99.1459 145.555 102.659C144.304 103.972 144.353 106.051 145.666 107.303C146.302 107.91 147.117 108.211 147.932 108.211C148.799 108.211 149.664 107.87 150.31 107.193C158.994 98.0852 183.261 91.7582 188.959 90.3712C189.352 88.1137 189.577 85.8508 189.621 83.6017C189.329 83.5861 189.033 83.6067 188.736 83.6731Z" fill="#ACAAB1"/>
<path d="M76.0929 116.072C74.4031 115.412 72.4983 116.249 71.8399 117.939C69.7987 123.175 64.1919 126.251 64.1075 126.297C62.5113 127.148 61.9037 129.132 62.7507 130.731C63.3403 131.844 64.4782 132.479 65.6561 132.479C66.1743 132.479 66.7001 132.356 67.1901 132.097C67.508 131.929 75.012 127.887 77.9603 120.325C78.6187 118.635 77.7835 116.731 76.0929 116.072Z" fill="#ACAAB1"/>
<path d="M63.2877 123.886C86.2206 145.207 99.6896 144.647 124.643 125.036" stroke="black" stroke-width="3" stroke-linecap="round"/>
<ellipse cx="121.5" cy="82.9675" rx="7.5" ry="7" fill="black"/>
<ellipse cx="77.5" cy="82.9675" rx="7.5" ry="7" fill="black"/>
<circle cx="101" cy="101" r="98.5" stroke="#F6C667" stroke-width="5"/>
</svg>
