<svg width="227" height="215" viewBox="0 0 227 215" fill="none" xmlns="http://www.w3.org/2000/svg">
<path d="M29.9455 141.322C29.9455 141.322 -13.9376 57.1787 109.018 46.0331C231.975 34.8875 202.938 126.217 157.571 140.008C112.204 153.799 125.652 178.881 84.7516 178.579C43.8512 178.275 29.9455 141.322 29.9455 141.322Z" fill="#D7D5D9"/>
<path opacity="0.27" d="M180.815 57.6826C198.183 82.9333 176.235 121.728 147.927 130.333C102.559 144.124 116.008 169.207 75.1076 168.904C59.3476 168.787 47.599 163.227 39.1065 156.438C47.368 166.687 61.8205 178.408 84.7818 178.578C125.682 178.882 112.234 153.799 157.601 140.008C189.866 130.2 213.87 81.1734 180.815 57.6826Z" fill="#ACAAB1"/>
<path d="M152.233 72.8405C149.821 72.6318 140.372 71.2381 131.895 69.8969C130.107 69.6138 128.421 70.8362 128.137 72.6272C127.854 74.4186 129.077 76.1012 130.868 76.3846C135.844 77.172 139.703 77.767 142.715 78.2126C135.432 83.4717 130.742 89.5219 130.441 89.9154C129.34 91.3553 129.614 93.4137 131.053 94.516C131.648 94.9725 132.351 95.1929 133.048 95.1929C134.034 95.1929 135.01 94.7508 135.657 93.908C135.746 93.7925 143.563 83.7366 154.092 79.1788C154.124 79.1654 154.155 79.1511 154.187 79.1372C155.685 78.4948 157.237 77.9631 158.829 77.5886C173.64 74.1036 186.073 63.2801 186.595 62.8208C186.626 62.7939 186.653 62.7641 186.682 62.7368C185.204 61.2011 183.547 59.7364 181.702 58.3545C179.231 60.3881 168.87 68.4775 157.324 71.194C155.571 71.608 153.872 72.1724 152.233 72.8405Z" fill="#ACAAB1"/>
<path d="M74.0133 160.433C86.1314 158.141 88.2369 146.497 88.3205 146.003C88.3444 145.861 88.3511 145.88 88.3541 145.778C88.4973 145.123 90.4415 138.06 107.366 136.05C109.167 135.836 110.454 134.202 110.24 132.401C110.027 130.599 108.393 129.312 106.591 129.527C97.1023 130.654 90.1077 133.418 85.8026 137.743C82.6066 140.954 81.9616 143.971 81.8331 144.957C81.6639 145.783 80.0518 152.605 72.7922 153.979C62.0771 156.006 55.1349 167.911 54.0507 169.885C55.8517 171.018 57.7703 172.08 59.8074 173.049C61.5215 169.845 67.182 161.726 74.0133 160.433Z" fill="#ACAAB1"/>
<path d="M95.5998 164.392C97.3404 163.881 98.3377 162.056 97.8271 160.316C97.3165 158.576 95.4915 157.577 93.7513 158.089C80.9387 161.846 72.9354 175.809 72.6007 176.402C72.4458 176.676 72.337 176.964 72.2677 177.257C74.4618 177.722 76.755 178.075 79.1519 178.299C81.2805 175.053 87.3622 166.807 95.5998 164.392Z" fill="#ACAAB1"/>
<path d="M26.7788 91.6698C26.8141 91.6631 30.7526 91.4842 36.7096 97.4412C37.8581 98.5905 38.8554 99.6487 39.7351 100.583C44.4613 105.601 47.2227 108.129 55.2773 108.129C56.3711 108.129 57.5633 108.082 58.8705 107.988C60.68 107.859 62.0422 106.287 61.9129 104.478C61.7835 102.669 60.2101 101.307 58.4027 101.436C50.1189 102.027 49.1548 101.003 44.5172 96.0786C43.6059 95.1111 42.5734 94.0146 41.3543 92.796C35.3075 86.7487 30.2923 85.4004 27.6733 85.1623C26.6298 87.2497 25.7647 89.3581 25.0576 91.4703C25.5863 91.6824 26.1754 91.763 26.7788 91.6698Z" fill="#ACAAB1"/>
<path d="M46.993 68.3251C47.0816 68.2604 55.8807 61.891 61.7734 66.5425C62.2723 66.936 62.4651 67.2345 62.4785 67.3702C62.5751 68.3322 60.5406 70.7388 59.3249 72.177C56.9326 75.0065 54.4588 77.9329 54.7746 81.4728C54.9426 83.352 55.8748 85.0044 57.5448 86.3851C65.1832 92.6978 70.9626 87.3253 76.5505 82.1292C78.2751 80.5255 80.0589 78.8676 82.1283 77.2106C83.7853 75.8837 85.2273 75.2886 85.89 75.6599C87.5008 76.5597 89.2443 82.0712 88.0778 91.5077C87.8552 93.3079 89.1339 94.9477 90.9345 95.1707C91.0714 95.1879 91.2074 95.1959 91.3418 95.1959C92.9757 95.1959 94.3917 93.9773 94.5975 92.314C94.9229 89.681 95.059 87.2102 95.0182 84.9305C95.5801 83.6132 97.6453 79.5945 101.99 79.4148C103.802 79.34 105.211 77.8099 105.136 75.9975C105.061 74.1855 103.533 72.7695 101.719 72.8514C98.2491 72.9946 95.6028 74.3304 93.6258 75.9991C92.623 73.1349 91.0974 71.0445 89.0936 69.925C86.8428 68.6677 83.0954 68.0219 78.0232 72.0821C75.764 73.8903 73.8055 75.7111 72.0779 77.3181C65.7304 83.2197 64.5697 83.669 61.7298 81.3217C61.3758 81.0294 61.3191 80.8828 61.3178 80.887C61.249 80.0749 63.2604 77.6965 64.3413 76.4178C66.7079 73.6186 69.3904 70.4457 69.0146 66.7122C68.8097 64.6776 67.7426 62.8854 65.8442 61.3859C63.1604 59.2674 60.2773 58.4116 57.4936 58.2856C51.5324 61.0604 46.516 64.1616 42.3138 67.4928C42.3432 67.5369 42.3693 67.5822 42.4016 67.6251C43.4766 69.0864 45.5321 69.3997 46.993 68.3251Z" fill="#ACAAB1"/>
<path d="M195.736 88.7056C194.987 88.8727 184.477 91.2553 173.563 95.4898C173.528 93.0408 172.871 90.9038 171.945 89.1393C182.039 87.4164 190.128 83.0891 195.023 76.8079C194.326 74.5357 193.397 72.3181 192.211 70.1811C191.355 70.6111 190.861 71.3435 190.65 71.6605C186.798 77.4416 179.407 81.4107 169.839 82.8355C168.231 83.0748 166.708 83.3742 165.253 83.7127C165.2 83.7228 165.148 83.7362 165.095 83.7492C148.827 87.589 142.085 96.9894 141.782 97.424C141.76 97.4542 141.74 97.4849 141.719 97.5159C138.706 102.16 128.864 113.823 119.638 112.06C117.857 111.721 116.136 112.888 115.796 114.669C115.455 116.451 116.624 118.171 118.405 118.512C119.485 118.718 120.549 118.814 121.601 118.814C135.251 118.812 146.238 102.599 147.182 101.165C147.645 100.536 152.801 93.8559 165.005 90.541C166.178 91.8046 167.817 94.4375 166.537 98.4872C161.004 101.094 155.906 104.178 152.556 107.692C151.304 109.005 151.353 111.084 152.666 112.336C153.302 112.942 154.117 113.243 154.932 113.243C155.799 113.243 156.664 112.902 157.31 112.225C165.994 103.118 190.261 96.7907 195.959 95.4037C196.352 93.1462 196.577 90.8833 196.621 88.6342C196.329 88.6186 196.033 88.6392 195.736 88.7056Z" fill="#ACAAB1"/>
<path d="M83.0929 121.104C81.4031 120.445 79.4984 121.281 78.8399 122.972C76.7987 128.208 71.1919 131.284 71.1075 131.329C69.5114 132.181 68.9037 134.164 69.7507 135.764C70.3403 136.877 71.4783 137.512 72.6561 137.512C73.1743 137.512 73.7001 137.389 74.1901 137.13C74.508 136.962 82.012 132.92 84.9603 125.357C85.6187 123.667 84.7835 121.764 83.0929 121.104Z" fill="#ACAAB1"/>
<path d="M194.578 0.199901C194.739 0.169247 194.903 0.144052 195.067 0.121796C194.903 0.143632 194.74 0.168827 194.578 0.199901Z" fill="#D7D5D9"/>
<path d="M188.153 33.7508C188.029 33.6924 187.912 33.6282 187.793 33.5656C187.912 33.6282 188.028 33.692 188.153 33.7508Z" fill="#D7D5D9"/>
<path d="M194.086 0.309908C194.245 0.269176 194.404 0.232643 194.565 0.201569C194.405 0.233063 194.245 0.269176 194.086 0.309908Z" fill="#D7D5D9"/>
<path d="M195.136 0.112554C195.297 0.0923975 195.459 0.0760205 195.622 0.0638428C195.459 0.0764404 195.297 0.0923975 195.136 0.112554Z" fill="#D7D5D9"/>
<path d="M188.792 34.0242C188.666 33.9755 188.548 33.9213 188.427 33.8692C188.548 33.9209 188.666 33.9755 188.792 34.0242Z" fill="#D7D5D9"/>
<path d="M187.557 33.4426C187.436 33.3737 187.322 33.299 187.206 33.2255C187.322 33.299 187.436 33.3733 187.557 33.4426Z" fill="#D7D5D9"/>
<path d="M186.497 32.7199C186.386 32.6296 186.282 32.5334 186.178 32.4373C186.282 32.5334 186.386 32.6292 186.497 32.7199Z" fill="#D7D5D9"/>
<path d="M194.05 34.7091C193.909 34.7355 193.767 34.7578 193.628 34.7763C193.767 34.7574 193.908 34.7351 194.05 34.7091Z" fill="#D7D5D9"/>
<path d="M186.03 32.3042C185.926 32.2026 185.828 32.0955 185.731 31.988C185.828 32.0955 185.926 32.2026 186.03 32.3042Z" fill="#D7D5D9"/>
<path d="M193.575 0.460229C193.728 0.409419 193.882 0.362388 194.037 0.321655C193.882 0.363228 193.728 0.409419 193.575 0.460229Z" fill="#D7D5D9"/>
<path d="M193.046 0.659276C193.198 0.595028 193.351 0.537499 193.505 0.484589C193.351 0.537499 193.198 0.594608 193.046 0.659276Z" fill="#D7D5D9"/>
<path d="M187.006 33.0991C186.889 33.0193 186.779 32.934 186.669 32.8496C186.779 32.934 186.889 33.0193 187.006 33.0991Z" fill="#D7D5D9"/>
<path d="M192.09 1.15353C192.236 1.06324 192.384 0.978839 192.533 0.901154C192.383 0.978839 192.236 1.06324 192.09 1.15353Z" fill="#D7D5D9"/>
<path d="M192.877 34.8363C192.734 34.8401 192.592 34.8393 192.45 34.8338C192.591 34.8388 192.734 34.8397 192.877 34.8363Z" fill="#D7D5D9"/>
<path d="M199.1 0.2276C199.48 0.277151 199.865 0.332581 200.256 0.392209C199.865 0.333 199.48 0.277151 199.1 0.2276Z" fill="#D7D5D9"/>
<path d="M192.308 34.8271C192.137 34.8166 191.967 34.8023 191.798 34.7775C191.967 34.8023 192.137 34.817 192.308 34.8271Z" fill="#D7D5D9"/>
<path d="M193.497 34.7935C193.323 34.8132 193.149 34.8275 192.977 34.8346C193.149 34.8271 193.323 34.8132 193.497 34.7935Z" fill="#D7D5D9"/>
<path d="M200.273 0.395142C200.475 0.425796 200.678 0.45771 200.882 0.489624C200.678 0.45771 200.474 0.425796 200.273 0.395142Z" fill="#D7D5D9"/>
<path d="M189.475 34.2631C189.351 34.2237 189.233 34.1791 189.112 34.1371C189.233 34.1791 189.35 34.2237 189.475 34.2631Z" fill="#D7D5D9"/>
<path d="M190.978 34.6398C190.875 34.6201 190.78 34.5957 190.679 34.5743C190.779 34.5949 190.876 34.6196 190.978 34.6398Z" fill="#D7D5D9"/>
<path d="M197.353 0.0579529C197.708 0.0781091 198.068 0.109183 198.433 0.148656C198.068 0.108763 197.708 0.0781091 197.353 0.0579529Z" fill="#D7D5D9"/>
<path d="M196.774 0.0348511C196.943 0.0382104 197.113 0.0445093 197.285 0.0537476C197.114 0.0445093 196.943 0.0386304 196.774 0.0348511Z" fill="#D7D5D9"/>
<path d="M192.563 0.885607C192.713 0.808761 192.863 0.738214 193.014 0.673126C192.863 0.737794 192.713 0.808761 192.563 0.885607Z" fill="#D7D5D9"/>
<path d="M183.6 26.0645C183.586 25.8323 183.579 25.5947 183.573 25.3524C183.579 25.5942 183.586 25.8323 183.6 26.0645Z" fill="#D7D5D9"/>
<path d="M183.821 21.4374C183.862 21.1246 183.908 20.8055 183.959 20.4809C183.908 20.8055 183.862 21.125 183.821 21.4374Z" fill="#D7D5D9"/>
<path d="M185.606 31.8524C185.508 31.7394 185.418 31.6201 185.328 31.5005C185.418 31.6201 185.508 31.7394 185.606 31.8524Z" fill="#D7D5D9"/>
<path d="M183.667 26.8658C183.643 26.6487 183.625 26.4253 183.609 26.1985C183.625 26.4249 183.643 26.6483 183.667 26.8658Z" fill="#D7D5D9"/>
<path d="M183.704 22.4465C183.734 22.1513 183.769 21.8498 183.808 21.5424C183.769 21.8494 183.734 22.1513 183.704 22.4465Z" fill="#D7D5D9"/>
<path d="M183.623 23.4144C183.642 23.1356 183.666 22.8509 183.694 22.5607C183.666 22.8501 183.642 23.1356 183.623 23.4144Z" fill="#D7D5D9"/>
<path d="M183.579 24.3391C183.586 24.0762 183.599 23.8071 183.616 23.5333C183.6 23.8071 183.586 24.0766 183.579 24.3391Z" fill="#D7D5D9"/>
<path d="M185.249 14.4629C185.361 14.0371 185.477 13.6046 185.599 13.1641C185.477 13.6046 185.361 14.038 185.249 14.4629Z" fill="#D7D5D9"/>
<path d="M190.681 2.26549C190.821 2.12817 190.962 1.99716 191.104 1.87454C190.962 1.99674 190.821 2.12776 190.681 2.26549Z" fill="#D7D5D9"/>
<path d="M191.116 1.86445C191.259 1.74226 191.402 1.62846 191.548 1.52054C191.402 1.62804 191.258 1.74226 191.116 1.86445Z" fill="#D7D5D9"/>
<path d="M185.223 31.3631C185.133 31.2384 185.051 31.1074 184.969 30.976C185.051 31.1078 185.134 31.2384 185.223 31.3631Z" fill="#D7D5D9"/>
<path d="M184.579 30.2718C184.507 30.1223 184.441 29.9673 184.377 29.8103C184.442 29.9673 184.507 30.1231 184.579 30.2718Z" fill="#D7D5D9"/>
<path d="M184.881 30.8365C184.8 30.7001 184.726 30.5573 184.653 30.4133C184.726 30.5573 184.8 30.7001 184.881 30.8365Z" fill="#D7D5D9"/>
<path d="M188.914 4.54441C189.04 4.33822 189.167 4.14044 189.295 3.95148C189.167 4.14002 189.04 4.33822 188.914 4.54441Z" fill="#D7D5D9"/>
<path d="M190.215 2.75807C190.348 2.60647 190.484 2.46286 190.62 2.32639C190.483 2.46244 190.348 2.60605 190.215 2.75807Z" fill="#D7D5D9"/>
<path d="M184.638 16.9653C184.725 16.5798 184.817 16.1872 184.914 15.7878C184.817 16.1876 184.724 16.5798 184.638 16.9653Z" fill="#D7D5D9"/>
<path d="M202.181 29.9073C201.992 30.0815 201.803 30.2524 201.612 30.42C201.802 30.252 201.992 30.0819 202.181 29.9073Z" fill="#D7D5D9"/>
<path d="M204.587 27.4835C204.415 27.6707 204.242 27.8555 204.068 28.0386C204.242 27.8559 204.415 27.6707 204.587 27.4835Z" fill="#D7D5D9"/>
<path d="M205.188 26.8167C205.001 27.0283 204.813 27.2378 204.623 27.4453C204.812 27.2374 205.001 27.0283 205.188 26.8167Z" fill="#D7D5D9"/>
<path d="M201.505 30.5145C201.346 30.6535 201.187 30.7895 201.028 30.923C201.187 30.7895 201.346 30.653 201.505 30.5145Z" fill="#D7D5D9"/>
<path d="M200.913 31.0192C200.725 31.1759 200.536 31.3295 200.346 31.479C200.536 31.33 200.724 31.1763 200.913 31.0192Z" fill="#D7D5D9"/>
<path d="M188.858 4.63763C188.728 4.85305 188.6 5.07603 188.473 5.31077C188.6 5.07561 188.729 4.85305 188.858 4.63763Z" fill="#D7D5D9"/>
<path d="M209.53 21.2249C209.045 21.9325 208.537 22.6413 208.011 23.3426C208.537 22.6413 209.045 21.9329 209.53 21.2249Z" fill="#D7D5D9"/>
<path d="M213.579 14.3177C213.692 14.0791 213.8 13.8461 213.903 13.616C213.799 13.8461 213.692 14.0796 213.579 14.3177Z" fill="#D7D5D9"/>
<path d="M207.994 23.367C207.649 23.8255 207.297 24.2803 206.938 24.7309C207.297 24.2807 207.649 23.8251 207.994 23.367Z" fill="#D7D5D9"/>
<path d="M199.074 32.4205C198.887 32.5498 198.699 32.6737 198.511 32.7942C198.699 32.6729 198.887 32.5494 199.074 32.4205Z" fill="#D7D5D9"/>
<path d="M202.857 29.266C203.234 28.8999 203.609 28.5215 203.979 28.1335C203.609 28.5215 203.235 28.8995 202.857 29.266Z" fill="#D7D5D9"/>
<path d="M206.888 24.7935C206.533 25.2373 206.171 25.6761 205.803 26.1078C206.171 25.6757 206.533 25.2373 206.888 24.7935Z" fill="#D7D5D9"/>
<path d="M185.992 11.7817C185.857 12.2437 185.728 12.6984 185.605 13.1448C185.728 12.698 185.857 12.2441 185.992 11.7817Z" fill="#D7D5D9"/>
<path d="M210.235 2.0253C210.793 2.27179 211.291 2.5607 211.735 2.88194C211.291 2.56112 210.793 2.27263 210.235 2.0253Z" fill="#D7D5D9"/>
<path d="M204.697 1.02124C204.735 1.02502 204.773 1.02922 204.812 1.03258C204.774 1.02922 204.735 1.02502 204.697 1.02124Z" fill="#D7D5D9"/>
<path d="M214.494 12.1899C214.42 12.386 214.34 12.588 214.256 12.7938C214.34 12.588 214.42 12.386 214.494 12.1899Z" fill="#D7D5D9"/>
<path d="M197.794 33.233C197.609 33.3405 197.425 33.4422 197.24 33.54C197.425 33.4426 197.609 33.3405 197.794 33.233Z" fill="#D7D5D9"/>
<path d="M205.4 1.0834C205.436 1.08592 205.471 1.08886 205.507 1.09096C205.472 1.08844 205.435 1.08592 205.4 1.0834Z" fill="#D7D5D9"/>
<path d="M202.707 0.77182C202.75 0.778539 202.793 0.784418 202.837 0.790717C202.794 0.784418 202.75 0.778119 202.707 0.77182Z" fill="#D7D5D9"/>
<path d="M203.398 0.868835C203.431 0.873035 203.464 0.877654 203.498 0.881853C203.464 0.877654 203.431 0.873455 203.398 0.868835Z" fill="#D7D5D9"/>
<path d="M196.523 33.8953C196.34 33.9801 196.156 34.0607 195.973 34.135C196.156 34.0607 196.34 33.9797 196.523 33.8953Z" fill="#D7D5D9"/>
<path d="M204.062 0.952393C204.077 0.954072 204.092 0.956172 204.107 0.958272C204.092 0.956592 204.077 0.954072 204.062 0.952393Z" fill="#D7D5D9"/>
<path d="M194.722 34.5579C194.544 34.6058 194.366 34.6469 194.189 34.6826C194.367 34.6469 194.544 34.6062 194.722 34.5579Z" fill="#D7D5D9"/>
<path d="M214.735 11.5143C214.671 11.7057 214.6 11.9044 214.524 12.1072C214.6 11.9048 214.671 11.7057 214.735 11.5143Z" fill="#D7D5D9"/>
<path d="M195.272 34.3916C195.115 34.4437 194.957 34.4924 194.8 34.5356C194.957 34.492 195.115 34.4437 195.272 34.3916Z" fill="#D7D5D9"/>
<path d="M198.369 32.8837C198.215 32.9802 198.062 33.0747 197.908 33.1654C198.061 33.0747 198.215 32.9807 198.369 32.8837Z" fill="#D7D5D9"/>
<path d="M202.039 0.671051C202.082 0.67777 202.124 0.684069 202.166 0.690787C202.124 0.684069 202.082 0.67735 202.039 0.671051Z" fill="#D7D5D9"/>
<path d="M213.232 4.31512C213.54 4.70439 213.8 5.1134 214.019 5.53122C213.8 5.1134 213.54 4.70481 213.232 4.31512Z" fill="#D7D5D9"/>
<path d="M210.485 19.7905C211.725 17.8681 212.782 15.9902 213.579 14.3177C212.782 15.9902 211.725 17.8677 210.485 19.7905Z" fill="#ACAAB1"/>
<path d="M186.19 11.0994C186.121 11.3312 186.058 11.5546 185.992 11.7822C186.058 11.5541 186.121 11.3303 186.19 11.0994Z" fill="#ACAAB1"/>
<path d="M186.514 10.0592C186.573 9.87782 186.632 9.69893 186.691 9.52341C186.631 9.69851 186.572 9.8774 186.514 10.0592Z" fill="#ACAAB1"/>
<path d="M187.035 8.54834C187.12 8.32033 187.205 8.09693 187.29 7.88025C187.205 8.09693 187.12 8.32075 187.035 8.54834Z" fill="#ACAAB1"/>
<path d="M188.474 5.31033C188.38 5.48292 188.288 5.66223 188.196 5.84531C188.287 5.66223 188.38 5.48334 188.474 5.31033Z" fill="#ACAAB1"/>
<path d="M187.294 7.86975C187.383 7.64509 187.473 7.428 187.564 7.21552C187.473 7.42758 187.383 7.64509 187.294 7.86975Z" fill="#ACAAB1"/>
<path d="M187.918 6.42061C187.986 6.27448 188.054 6.13128 188.124 5.99103C188.055 6.13086 187.986 6.27406 187.918 6.42061Z" fill="#ACAAB1"/>
<path d="M187.63 7.06098C187.699 6.9035 187.767 6.74813 187.836 6.59738C187.767 6.74855 187.699 6.9035 187.63 7.06098Z" fill="#ACAAB1"/>
<path d="M70.0492 80C81.5942 99.3153 89.1319 99.187 104.172 82.6593" stroke="black" stroke-width="3" stroke-linecap="round"/>
<path d="M70.2877 128.919C93.2206 150.239 106.69 149.679 131.643 130.068" stroke="black" stroke-width="3" stroke-linecap="round"/>
<path d="M128.253 83C139.545 97.8157 146.27 97.4097 158.863 83.7256" stroke="black" stroke-width="3" stroke-linecap="round"/>
<circle cx="109" cy="109" r="98.5" stroke="#F6C667" stroke-width="5"/>
<path d="M32.5 143.5C32.5 143.5 5.44781 172.577 31 181.5C56.5521 190.423 53.8662 184.577 72 193.5" stroke="black" stroke-width="3" stroke-linecap="round"/>
<path d="M148.5 139.5C156.5 146 175.844 152.327 181 153C192.5 154.5 206.833 132.667 216 116.5M216 116.5L222 105M216 116.5L213 105" stroke="black" stroke-width="3" stroke-linecap="round"/>
<mask id="path-91-inside-1_1_151" fill="white">
<path d="M223.351 119.953C222.581 120.883 221.567 121.56 220.497 121.856C219.426 122.152 218.373 122.049 217.53 121.565C216.688 121.081 216.113 120.249 215.913 119.223C215.714 118.197 215.902 117.047 216.443 115.984C216.984 114.922 217.842 114.019 218.857 113.444C219.873 112.868 220.978 112.659 221.968 112.854C222.957 113.049 223.765 113.635 224.241 114.504C224.718 115.374 224.83 116.467 224.558 117.583L222.391 117.492C222.526 116.94 222.47 116.399 222.235 115.968C221.999 115.538 221.599 115.248 221.11 115.152C220.62 115.055 220.073 115.159 219.571 115.444C219.068 115.729 218.644 116.175 218.376 116.701C218.108 117.226 218.015 117.796 218.114 118.303C218.213 118.811 218.497 119.222 218.914 119.462C219.331 119.701 219.852 119.752 220.382 119.606C220.911 119.459 221.413 119.125 221.794 118.664L223.351 119.953Z"/>
</mask>
<path d="M223.351 119.953C222.581 120.883 221.567 121.56 220.497 121.856C219.426 122.152 218.373 122.049 217.53 121.565C216.688 121.081 216.113 120.249 215.913 119.223C215.714 118.197 215.902 117.047 216.443 115.984C216.984 114.922 217.842 114.019 218.857 113.444C219.873 112.868 220.978 112.659 221.968 112.854C222.957 113.049 223.765 113.635 224.241 114.504C224.718 115.374 224.83 116.467 224.558 117.583L222.391 117.492C222.526 116.94 222.47 116.399 222.235 115.968C221.999 115.538 221.599 115.248 221.11 115.152C220.62 115.055 220.073 115.159 219.571 115.444C219.068 115.729 218.644 116.175 218.376 116.701C218.108 117.226 218.015 117.796 218.114 118.303C218.213 118.811 218.497 119.222 218.914 119.462C219.331 119.701 219.852 119.752 220.382 119.606C220.911 119.459 221.413 119.125 221.794 118.664L223.351 119.953Z" stroke="black" stroke-width="4" mask="url(#path-91-inside-1_1_151)"/>
</svg>
